<mxfile host="app.diagrams.net" modified="2023-12-02T23:03:47.241Z" agent="Mozilla/5.0 (Windows NT 10.0; Win64; x64) AppleWebKit/537.36 (KHTML, like Gecko) Chrome/119.0.0.0 Safari/537.36" etag="ErG_CkweGaBHNh4J_DZ9" version="22.1.5" type="device">
  <diagram id="C5RBs43oDa-KdzZeNtuy" name="Page-1">
    <mxGraphModel dx="1195" dy="682" grid="1" gridSize="10" guides="1" tooltips="1" connect="1" arrows="1" fold="1" page="1" pageScale="1" pageWidth="827" pageHeight="1169" math="0" shadow="0">
      <root>
        <mxCell id="WIyWlLk6GJQsqaUBKTNV-0" />
        <mxCell id="WIyWlLk6GJQsqaUBKTNV-1" parent="WIyWlLk6GJQsqaUBKTNV-0" />
        <mxCell id="UglsDzmX5-RC9Xqj1ao0-15" style="edgeStyle=orthogonalEdgeStyle;rounded=0;orthogonalLoop=1;jettySize=auto;html=1;" edge="1" parent="WIyWlLk6GJQsqaUBKTNV-1" source="UglsDzmX5-RC9Xqj1ao0-1" target="UglsDzmX5-RC9Xqj1ao0-3">
          <mxGeometry relative="1" as="geometry" />
        </mxCell>
        <mxCell id="UglsDzmX5-RC9Xqj1ao0-1" value="START" style="ellipse;whiteSpace=wrap;html=1;" vertex="1" parent="WIyWlLk6GJQsqaUBKTNV-1">
          <mxGeometry x="250" y="20" width="120" height="80" as="geometry" />
        </mxCell>
        <mxCell id="UglsDzmX5-RC9Xqj1ao0-2" value="END" style="ellipse;whiteSpace=wrap;html=1;" vertex="1" parent="WIyWlLk6GJQsqaUBKTNV-1">
          <mxGeometry x="250" y="830" width="120" height="80" as="geometry" />
        </mxCell>
        <mxCell id="UglsDzmX5-RC9Xqj1ao0-24" style="edgeStyle=orthogonalEdgeStyle;rounded=0;orthogonalLoop=1;jettySize=auto;html=1;entryX=0.5;entryY=0;entryDx=0;entryDy=0;" edge="1" parent="WIyWlLk6GJQsqaUBKTNV-1" source="UglsDzmX5-RC9Xqj1ao0-3" target="UglsDzmX5-RC9Xqj1ao0-23">
          <mxGeometry relative="1" as="geometry" />
        </mxCell>
        <mxCell id="UglsDzmX5-RC9Xqj1ao0-3" value="Write out logo" style="rounded=1;whiteSpace=wrap;html=1;" vertex="1" parent="WIyWlLk6GJQsqaUBKTNV-1">
          <mxGeometry x="250" y="140" width="120" height="60" as="geometry" />
        </mxCell>
        <mxCell id="UglsDzmX5-RC9Xqj1ao0-17" style="edgeStyle=orthogonalEdgeStyle;rounded=0;orthogonalLoop=1;jettySize=auto;html=1;entryX=0.5;entryY=0;entryDx=0;entryDy=0;" edge="1" parent="WIyWlLk6GJQsqaUBKTNV-1" source="UglsDzmX5-RC9Xqj1ao0-5" target="UglsDzmX5-RC9Xqj1ao0-6">
          <mxGeometry relative="1" as="geometry" />
        </mxCell>
        <mxCell id="UglsDzmX5-RC9Xqj1ao0-5" value="Generate two random numbers which haven&#39;t been generated yet" style="rounded=1;whiteSpace=wrap;html=1;" vertex="1" parent="WIyWlLk6GJQsqaUBKTNV-1">
          <mxGeometry x="250" y="250" width="120" height="60" as="geometry" />
        </mxCell>
        <mxCell id="UglsDzmX5-RC9Xqj1ao0-18" style="edgeStyle=orthogonalEdgeStyle;rounded=0;orthogonalLoop=1;jettySize=auto;html=1;" edge="1" parent="WIyWlLk6GJQsqaUBKTNV-1" source="UglsDzmX5-RC9Xqj1ao0-6" target="UglsDzmX5-RC9Xqj1ao0-7">
          <mxGeometry relative="1" as="geometry" />
        </mxCell>
        <mxCell id="UglsDzmX5-RC9Xqj1ao0-6" value="Write out the two selected entity" style="rounded=1;whiteSpace=wrap;html=1;" vertex="1" parent="WIyWlLk6GJQsqaUBKTNV-1">
          <mxGeometry x="250" y="360" width="120" height="60" as="geometry" />
        </mxCell>
        <mxCell id="UglsDzmX5-RC9Xqj1ao0-19" style="edgeStyle=orthogonalEdgeStyle;rounded=0;orthogonalLoop=1;jettySize=auto;html=1;" edge="1" parent="WIyWlLk6GJQsqaUBKTNV-1" source="UglsDzmX5-RC9Xqj1ao0-7" target="UglsDzmX5-RC9Xqj1ao0-9">
          <mxGeometry relative="1" as="geometry" />
        </mxCell>
        <mxCell id="UglsDzmX5-RC9Xqj1ao0-7" value="Get the user&#39;s guess" style="rounded=1;whiteSpace=wrap;html=1;" vertex="1" parent="WIyWlLk6GJQsqaUBKTNV-1">
          <mxGeometry x="250" y="470" width="120" height="60" as="geometry" />
        </mxCell>
        <mxCell id="UglsDzmX5-RC9Xqj1ao0-13" style="edgeStyle=orthogonalEdgeStyle;rounded=0;orthogonalLoop=1;jettySize=auto;html=1;" edge="1" parent="WIyWlLk6GJQsqaUBKTNV-1" source="UglsDzmX5-RC9Xqj1ao0-9" target="UglsDzmX5-RC9Xqj1ao0-10">
          <mxGeometry relative="1" as="geometry" />
        </mxCell>
        <mxCell id="UglsDzmX5-RC9Xqj1ao0-20" style="edgeStyle=orthogonalEdgeStyle;rounded=0;orthogonalLoop=1;jettySize=auto;html=1;entryX=0.5;entryY=0;entryDx=0;entryDy=0;" edge="1" parent="WIyWlLk6GJQsqaUBKTNV-1" source="UglsDzmX5-RC9Xqj1ao0-9" target="UglsDzmX5-RC9Xqj1ao0-14">
          <mxGeometry relative="1" as="geometry" />
        </mxCell>
        <mxCell id="UglsDzmX5-RC9Xqj1ao0-9" value="Higher or Lower" style="rhombus;whiteSpace=wrap;html=1;" vertex="1" parent="WIyWlLk6GJQsqaUBKTNV-1">
          <mxGeometry x="255" y="570" width="110" height="110" as="geometry" />
        </mxCell>
        <mxCell id="UglsDzmX5-RC9Xqj1ao0-25" style="edgeStyle=orthogonalEdgeStyle;rounded=0;orthogonalLoop=1;jettySize=auto;html=1;entryX=1;entryY=0.5;entryDx=0;entryDy=0;" edge="1" parent="WIyWlLk6GJQsqaUBKTNV-1" source="UglsDzmX5-RC9Xqj1ao0-10" target="UglsDzmX5-RC9Xqj1ao0-23">
          <mxGeometry relative="1" as="geometry">
            <Array as="points">
              <mxPoint x="500" y="225" />
            </Array>
          </mxGeometry>
        </mxCell>
        <mxCell id="UglsDzmX5-RC9Xqj1ao0-10" value="Increase the user&#39;s score" style="rounded=1;whiteSpace=wrap;html=1;" vertex="1" parent="WIyWlLk6GJQsqaUBKTNV-1">
          <mxGeometry x="440" y="595" width="120" height="60" as="geometry" />
        </mxCell>
        <mxCell id="UglsDzmX5-RC9Xqj1ao0-11" value="Higher" style="text;html=1;strokeColor=none;fillColor=none;align=center;verticalAlign=middle;whiteSpace=wrap;rounded=0;" vertex="1" parent="WIyWlLk6GJQsqaUBKTNV-1">
          <mxGeometry x="365" y="600" width="60" height="30" as="geometry" />
        </mxCell>
        <mxCell id="UglsDzmX5-RC9Xqj1ao0-12" value="Lower" style="text;html=1;strokeColor=none;fillColor=none;align=center;verticalAlign=middle;whiteSpace=wrap;rounded=0;" vertex="1" parent="WIyWlLk6GJQsqaUBKTNV-1">
          <mxGeometry x="305" y="680" width="60" height="30" as="geometry" />
        </mxCell>
        <mxCell id="UglsDzmX5-RC9Xqj1ao0-21" style="edgeStyle=orthogonalEdgeStyle;rounded=0;orthogonalLoop=1;jettySize=auto;html=1;" edge="1" parent="WIyWlLk6GJQsqaUBKTNV-1" source="UglsDzmX5-RC9Xqj1ao0-14" target="UglsDzmX5-RC9Xqj1ao0-2">
          <mxGeometry relative="1" as="geometry" />
        </mxCell>
        <mxCell id="UglsDzmX5-RC9Xqj1ao0-14" value="Write out the user&#39;s final score" style="rounded=1;whiteSpace=wrap;html=1;" vertex="1" parent="WIyWlLk6GJQsqaUBKTNV-1">
          <mxGeometry x="250" y="730" width="120" height="60" as="geometry" />
        </mxCell>
        <mxCell id="UglsDzmX5-RC9Xqj1ao0-26" style="edgeStyle=orthogonalEdgeStyle;rounded=0;orthogonalLoop=1;jettySize=auto;html=1;entryX=0.5;entryY=0;entryDx=0;entryDy=0;" edge="1" parent="WIyWlLk6GJQsqaUBKTNV-1" source="UglsDzmX5-RC9Xqj1ao0-23" target="UglsDzmX5-RC9Xqj1ao0-5">
          <mxGeometry relative="1" as="geometry" />
        </mxCell>
        <mxCell id="UglsDzmX5-RC9Xqj1ao0-23" value="" style="ellipse;whiteSpace=wrap;html=1;aspect=fixed;" vertex="1" parent="WIyWlLk6GJQsqaUBKTNV-1">
          <mxGeometry x="305" y="220" width="10" height="10" as="geometry" />
        </mxCell>
      </root>
    </mxGraphModel>
  </diagram>
</mxfile>
